{"asset":{"version":"2.0","generator":"babylon.js glTF exporter for maya 2018 v1.2.31"},"scene":0,"scenes":[{"nodes":[0],"extensions":{}}],"nodes":[{"mesh":0,"translation":[0.0,0.0,0.0],"rotation":[0.0,0.0,0.0,1.0],"scale":[1.0,1.0,1.0],"name":"ammoPack"}],"meshes":[{"primitives":[{"attributes":{"POSITION":1,"NORMAL":2,"TANGENT":3,"TEXCOORD_0":4},"indices":0,"mode":4,"material":0}],"name":"ammoPack"}],"accessors":[{"bufferView":0,"componentType":5123,"count":2934,"type":"SCALAR","name":"accessorIndices"},{"bufferView":1,"componentType":5126,"count":1782,"max":[0.1483509,0.355228,0.1483509],"min":[-0.1483509,-0.0246958286,-0.2873509],"type":"VEC3","name":"accessorPositions"},{"bufferView":1,"byteOffset":21384,"componentType":5126,"count":1782,"type":"VEC3","name":"accessorNormals"},{"bufferView":2,"componentType":5126,"count":1782,"type":"VEC4","name":"accessorTangents"},{"bufferView":3,"componentType":5126,"count":1782,"type":"VEC2","name":"accessorUVs"}],"bufferViews":[{"buffer":0,"byteLength":5868,"name":"bufferViewScalar"},{"buffer":0,"byteOffset":5868,"byteLength":42768,"byteStride":12,"name":"bufferViewFloatVec3"},{"buffer":0,"byteOffset":48636,"byteLength":28512,"byteStride":16,"name":"bufferViewFloatVec4"},{"buffer":0,"byteOffset":77148,"byteLength":14256,"byteStride":8,"name":"bufferViewFloatVec2"}],"buffers":[{"uri":"ammoPack.bin","byteLength":91404}],"materials":[{"pbrMetallicRoughness":{"baseColorFactor":[1.0,1.0,1.0,1.0],"baseColorTexture":{"index":0,"texCoord":0},"metallicFactor":0.7,"roughnessFactor":0.5},"emissiveFactor":[0.0,0.0,0.0],"alphaMode":"OPAQUE","name":"StingrayPBS1"}],"textures":[{"sampler":0,"source":0,"name":"ammo-pack-color.jpg"}],"images":[{"uri":"ammo-pack-color.jpg"}],"samplers":[{"magFilter":9729,"minFilter":9987,"wrapS":10497,"wrapT":10497}]}