{"asset":{"version":"2.0","generator":"babylon.js glTF exporter for maya 2018 v1.2.31"},"scene":0,"scenes":[{"nodes":[0],"extensions":{}}],"nodes":[{"mesh":0,"translation":[-3.76051116,2.00033665,-0.280693],"rotation":[6.12280148E-17,-0.9999293,-0.011888084,7.279352E-19],"scale":[1.0,1.0,1.0],"name":"rifle"}],"meshes":[{"primitives":[{"attributes":{"POSITION":1,"NORMAL":2,"TANGENT":3,"TEXCOORD_0":4},"indices":0,"mode":4,"material":0},{"attributes":{"POSITION":6,"NORMAL":7,"TANGENT":8,"TEXCOORD_0":9},"indices":5,"mode":4,"material":1},{"attributes":{"POSITION":11,"NORMAL":12,"TANGENT":13,"TEXCOORD_0":14},"indices":10,"mode":4,"material":2}],"name":"rifle"}],"accessors":[{"bufferView":0,"componentType":5123,"count":825,"type":"SCALAR","name":"accessorIndices"},{"bufferView":1,"componentType":5126,"count":206,"max":[0.0776162148,0.14043653,1.43396688],"min":[-0.0776162148,-0.1976875,-1.31612468],"type":"VEC3","name":"accessorPositions"},{"bufferView":1,"byteOffset":2472,"componentType":5126,"count":206,"type":"VEC3","name":"accessorNormals"},{"bufferView":2,"componentType":5126,"count":206,"type":"VEC4","name":"accessorTangents"},{"bufferView":3,"componentType":5126,"count":206,"type":"VEC2","name":"accessorUVs"},{"bufferView":0,"byteOffset":1652,"componentType":5123,"count":1245,"type":"SCALAR","name":"accessorIndices"},{"bufferView":1,"byteOffset":4944,"componentType":5126,"count":626,"max":[0.0776162148,0.197687268,1.44912577],"min":[-0.0776162148,-0.1976875,-1.44912529],"type":"VEC3","name":"accessorPositions"},{"bufferView":1,"byteOffset":12456,"componentType":5126,"count":626,"type":"VEC3","name":"accessorNormals"},{"bufferView":2,"byteOffset":3296,"componentType":5126,"count":626,"type":"VEC4","name":"accessorTangents"},{"bufferView":3,"byteOffset":1648,"componentType":5126,"count":626,"type":"VEC2","name":"accessorUVs"},{"bufferView":0,"byteOffset":4144,"componentType":5123,"count":216,"type":"SCALAR","name":"accessorIndices"},{"bufferView":1,"byteOffset":19968,"componentType":5126,"count":78,"max":[0.0340852737,0.177456617,0.3839032],"min":[-0.0340852737,0.10928607,0.361494958],"type":"VEC3","name":"accessorPositions"},{"bufferView":1,"byteOffset":20904,"componentType":5126,"count":78,"type":"VEC3","name":"accessorNormals"},{"bufferView":2,"byteOffset":13312,"componentType":5126,"count":78,"type":"VEC4","name":"accessorTangents"},{"bufferView":3,"byteOffset":6656,"componentType":5126,"count":78,"type":"VEC2","name":"accessorUVs"},{"bufferView":4,"componentType":5126,"count":2,"max":[8.291667],"min":[0.0],"type":"SCALAR","name":"accessorAnimationInput"},{"bufferView":5,"componentType":5126,"count":2,"type":"VEC4","name":"accessorAnimationRotations"},{"bufferView":4,"byteOffset":8,"componentType":5126,"count":2,"max":[8.291667],"min":[0.0],"type":"SCALAR","name":"accessorAnimationInput"},{"bufferView":6,"componentType":5126,"count":2,"type":"VEC3","name":"accessorAnimationPositions"}],"bufferViews":[{"buffer":0,"byteLength":4576,"name":"bufferViewScalar"},{"buffer":0,"byteOffset":4576,"byteLength":21840,"byteStride":12,"name":"bufferViewFloatVec3"},{"buffer":0,"byteOffset":26416,"byteLength":14560,"byteStride":16,"name":"bufferViewFloatVec4"},{"buffer":0,"byteOffset":40976,"byteLength":7280,"byteStride":8,"name":"bufferViewFloatVec2"},{"buffer":0,"byteOffset":48256,"byteLength":16,"name":"bufferViewAnimationFloatScalar"},{"buffer":0,"byteOffset":48272,"byteLength":32,"name":"bufferViewAnimationFloatVec4"},{"buffer":0,"byteOffset":48304,"byteLength":24,"name":"bufferViewAnimationFloatVec3"}],"buffers":[{"uri":"rifle.bin","byteLength":48328}],"materials":[{"pbrMetallicRoughness":{"baseColorFactor":[0.118,0.0325081833,0.012153998,1.0],"metallicFactor":0.0,"roughnessFactor":0.33},"emissiveFactor":[0.0,0.0,0.0],"alphaMode":"OPAQUE","name":"rifleWood_MTL"},{"pbrMetallicRoughness":{"baseColorFactor":[0.0286520012,0.0331422128,0.052,1.0],"metallicFactor":0.2,"roughnessFactor":0.5},"emissiveFactor":[0.0,0.0,0.0],"alphaMode":"OPAQUE","name":"rifleBlack_MTL"},{"pbrMetallicRoughness":{"baseColorFactor":[0.5,0.5,0.5,1.0],"metallicFactor":0.75,"roughnessFactor":0.55},"emissiveFactor":[0.0,0.0,0.0],"alphaMode":"OPAQUE","name":"rifleSilver_MTL"}],"animations":[{"channels":[{"sampler":0,"target":{"node":0,"path":"rotation"}},{"sampler":1,"target":{"node":0,"path":"translation"}}],"samplers":[{"input":15,"interpolation":"LINEAR","output":16},{"input":17,"interpolation":"LINEAR","output":18}],"name":"All Animations"}]}