{"asset":{"version":"2.0","generator":"babylon.js glTF exporter for maya 2018 v1.2.31"},"scene":0,"scenes":[{"nodes":[0],"extensions":{}}],"nodes":[{"mesh":0,"translation":[0.0,0.0,0.0],"rotation":[0.0,0.0,0.0,1.0],"scale":[0.0001,0.0001,0.0001],"name":"plus50"}],"meshes":[{"primitives":[{"attributes":{"POSITION":1,"NORMAL":2,"TANGENT":3,"TEXCOORD_0":4},"indices":0,"mode":4,"material":0}],"name":"plus50"}],"accessors":[{"bufferView":0,"componentType":5123,"count":6,"type":"SCALAR","name":"accessorIndices"},{"bufferView":1,"componentType":5126,"count":4,"max":[0.5,0.5,0.0],"min":[-0.5,-0.5,0.0],"type":"VEC3","name":"accessorPositions"},{"bufferView":1,"byteOffset":48,"componentType":5126,"count":4,"type":"VEC3","name":"accessorNormals"},{"bufferView":2,"componentType":5126,"count":4,"type":"VEC4","name":"accessorTangents"},{"bufferView":3,"componentType":5126,"count":4,"type":"VEC2","name":"accessorUVs"},{"bufferView":4,"componentType":5126,"count":10,"max":[0.466666669],"min":[0.0],"type":"SCALAR","name":"accessorAnimationInput"},{"bufferView":5,"componentType":5126,"count":10,"type":"VEC3","name":"accessorAnimationScales"}],"bufferViews":[{"buffer":0,"byteLength":12,"name":"bufferViewScalar"},{"buffer":0,"byteOffset":12,"byteLength":96,"byteStride":12,"name":"bufferViewFloatVec3"},{"buffer":0,"byteOffset":108,"byteLength":64,"byteStride":16,"name":"bufferViewFloatVec4"},{"buffer":0,"byteOffset":172,"byteLength":32,"byteStride":8,"name":"bufferViewFloatVec2"},{"buffer":0,"byteOffset":204,"byteLength":40,"name":"bufferViewAnimationFloatScalar"},{"buffer":0,"byteOffset":244,"byteLength":120,"name":"bufferViewAnimationFloatVec3"}],"buffers":[{"uri":"scorePlusFifty.bin","byteLength":364}],"materials":[{"pbrMetallicRoughness":{"baseColorFactor":[1.0,1.0,1.0,1.0],"baseColorTexture":{"index":1,"texCoord":0},"metallicFactor":0.0,"roughnessFactor":0.165830582},"emissiveTexture":{"index":0,"texCoord":0},"emissiveFactor":[1.0,1.0,1.0],"alphaMode":"BLEND","name":"scoreCard_MTL"}],"textures":[{"sampler":0,"source":0,"name":"scoreCard_MTL_emissive.jpg"},{"sampler":1,"source":1,"name":"scoreCard_MTL_baseColor.png"}],"images":[{"uri":"scoreCard_MTL_emissive.jpg"},{"uri":"scoreCard_MTL_baseColor.png"}],"samplers":[{"magFilter":9729,"minFilter":9987,"wrapS":10497,"wrapT":10497},{"magFilter":9729,"minFilter":9987,"wrapS":10497,"wrapT":10497}],"animations":[{"channels":[{"sampler":0,"target":{"node":0,"path":"scale"}}],"samplers":[{"input":5,"interpolation":"LINEAR","output":6}],"name":"popUp"}]}