{"asset":{"version":"2.0","generator":"babylon.js glTF exporter for maya 2018 v1.2.31"},"scene":0,"scenes":[{"nodes":[0],"extensions":{}}],"nodes":[{"mesh":0,"translation":[-9.457408E-07,0.0,1.4394827E-07],"rotation":[0.0,0.0,0.0,1.0],"scale":[1.0,1.0,1.0],"name":"sweetcorn"}],"meshes":[{"primitives":[{"attributes":{"POSITION":1,"NORMAL":2,"TANGENT":3,"TEXCOORD_0":4},"indices":0,"mode":4,"material":0},{"attributes":{"POSITION":6,"NORMAL":7,"TANGENT":8,"TEXCOORD_0":9},"indices":5,"mode":4,"material":1},{"attributes":{"POSITION":11,"NORMAL":12,"TANGENT":13,"TEXCOORD_0":14},"indices":10,"mode":4,"material":2}],"name":"sweetcorn"}],"accessors":[{"bufferView":0,"componentType":5123,"count":288,"type":"SCALAR","name":"accessorIndices"},{"bufferView":1,"componentType":5126,"count":63,"max":[0.15706338,0.967993557,0.157062635],"min":[-0.157061934,0.149681374,-0.15706268],"type":"VEC3","name":"accessorPositions"},{"bufferView":1,"byteOffset":756,"componentType":5126,"count":63,"type":"VEC3","name":"accessorNormals"},{"bufferView":2,"componentType":5126,"count":63,"type":"VEC4","name":"accessorTangents"},{"bufferView":3,"componentType":5126,"count":63,"type":"VEC2","name":"accessorUVs"},{"bufferView":0,"byteOffset":576,"componentType":5123,"count":72,"type":"SCALAR","name":"accessorIndices"},{"bufferView":1,"byteOffset":1512,"componentType":5126,"count":19,"max":[0.0612816326,1.00319791,0.0612808838],"min":[-0.06128018,0.967993557,-0.0612809248],"type":"VEC3","name":"accessorPositions"},{"bufferView":1,"byteOffset":1740,"componentType":5126,"count":19,"type":"VEC3","name":"accessorNormals"},{"bufferView":2,"byteOffset":1008,"componentType":5126,"count":19,"type":"VEC4","name":"accessorTangents"},{"bufferView":3,"byteOffset":504,"componentType":5126,"count":19,"type":"VEC2","name":"accessorUVs"},{"bufferView":0,"byteOffset":720,"componentType":5123,"count":270,"type":"SCALAR","name":"accessorIndices"},{"bufferView":1,"byteOffset":1968,"componentType":5126,"count":140,"max":[0.521347761,0.5065712,0.474601656],"min":[-0.322502315,0.128691345,-0.449619353],"type":"VEC3","name":"accessorPositions"},{"bufferView":1,"byteOffset":3648,"componentType":5126,"count":140,"type":"VEC3","name":"accessorNormals"},{"bufferView":2,"byteOffset":1312,"componentType":5126,"count":140,"type":"VEC4","name":"accessorTangents"},{"bufferView":3,"byteOffset":656,"componentType":5126,"count":140,"type":"VEC2","name":"accessorUVs"}],"bufferViews":[{"buffer":0,"byteLength":1260,"name":"bufferViewScalar"},{"buffer":0,"byteOffset":1260,"byteLength":5328,"byteStride":12,"name":"bufferViewFloatVec3"},{"buffer":0,"byteOffset":6588,"byteLength":3552,"byteStride":16,"name":"bufferViewFloatVec4"},{"buffer":0,"byteOffset":10140,"byteLength":1776,"byteStride":8,"name":"bufferViewFloatVec2"}],"buffers":[{"uri":"sweetcorn.bin","byteLength":11916}],"materials":[{"pbrMetallicRoughness":{"baseColorFactor":[1.0,1.0,1.0,1.0],"baseColorTexture":{"index":0,"texCoord":0},"metallicFactor":0.0,"roughnessFactor":0.5},"emissiveFactor":[0.0,0.0,0.0],"alphaMode":"OPAQUE","name":"sweetCorn_MTL"},{"pbrMetallicRoughness":{"baseColorFactor":[0.8,0.7812592,0.312799931,1.0],"metallicFactor":0.0,"roughnessFactor":0.7},"emissiveFactor":[0.0,0.0,0.0],"alphaMode":"OPAQUE","name":"sweetCornEnd_MTL"},{"pbrMetallicRoughness":{"baseColorFactor":[0.0,0.3625,0.0,1.0],"metallicFactor":0.0,"roughnessFactor":0.45},"emissiveFactor":[0.0,0.0,0.0],"alphaMode":"OPAQUE","name":"sweetCornLeaf_MTL"}],"textures":[{"sampler":0,"source":0,"name":"sweetcorn-color.jpg"}],"images":[{"uri":"sweetcorn-color.jpg"}],"samplers":[{"magFilter":9729,"minFilter":9987,"wrapS":10497,"wrapT":10497}]}